<svg width="16" height="16" viewBox="0 0 16 16" fill="none" xmlns="http://www.w3.org/2000/svg">
<g clip-path="url(#clip0_131_815)">
<path d="M4.076 1.2355C3.83429 1.0735 3.56171 1 3.29429 1C2.62743 1 2 1.459 2 2.1235L2 14.875C2 15.5425 2.62914 16 3.29429 16C3.56343 16 3.836 15.925 4.07771 15.7615C6.74172 13.957 11.276 10.8835 13.5029 9.3745C13.8183 9.1615 14 8.8345 14 8.4865C14 8.1415 13.8166 7.813 13.5011 7.6L4.076 1.2355ZM4.38868 13.2409C4.22254 13.3516 4 13.2325 4 13.0329L4 3.96713C4 3.76746 4.22254 3.64836 4.38868 3.75912L11.188 8.29199C11.3364 8.39094 11.3364 8.60906 11.188 8.70801L4.38868 13.2409Z" fill="#2B2A2F"/>
</g>
<defs>
<clipPath id="clip0_131_815">
<rect width="16" height="16" fill="white" transform="translate(6.99382e-07 16) rotate(-90)"/>
</clipPath>
</defs>
</svg>
