<svg preserveAspectRatio="none" width="100%" height="100%" overflow="visible" style="display: block;" viewBox="0 0 16.5 13" fill="none" xmlns="http://www.w3.org/2000/svg">
<path id="Vector 1" opacity="0.6" d="M10.7827 0.306241C10.3996 -0.091518 9.76653 -0.103358 9.36878 0.279795C8.97102 0.662948 8.95918 1.296 9.34233 1.69376L10.0625 1L10.7827 0.306241ZM15.5 6.64474L16.2017 7.35721C16.5921 6.97271 16.6004 6.34562 16.2202 5.95098L15.5 6.64474ZM9.36083 11.2875C8.96735 11.6751 8.96252 12.3082 9.35006 12.7017C9.7376 13.0952 10.3707 13.1 10.7642 12.7125L10.0625 12L9.36083 11.2875ZM1 5.64474C0.447715 5.64474 0 6.09245 0 6.64474C0 7.19702 0.447715 7.64474 1 7.64474V6.64474V5.64474ZM12.7813 9.32237L12.0796 8.6099L12.0796 8.6099L12.7813 9.32237ZM10.0625 1L9.34233 1.69376L14.7798 7.3385L15.5 6.64474L16.2202 5.95098L10.7827 0.306241L10.0625 1ZM15.5 6.64474V5.64474H1V6.64474V7.64474H15.5V6.64474ZM15.5 6.64474L14.7983 5.93227L12.0796 8.6099L12.7813 9.32237L13.483 10.0348L16.2017 7.35721L15.5 6.64474ZM12.7813 9.32237L12.0796 8.6099L9.36083 11.2875L10.0625 12L10.7642 12.7125L13.483 10.0348L12.7813 9.32237Z" fill="var(--stroke-0, #2B2A2F)" fill-opacity="0.8"/>
</svg>
