<svg preserveAspectRatio="none" width="100%" height="100%" overflow="visible" style="display: block;" viewBox="0 0 1359.37 482.195" fill="none" xmlns="http://www.w3.org/2000/svg">
<g id="Lightin&#226;&#128;&#153;">
<path d="M0 357.678V6.10372H58.974V302.501H214.607V357.678H0Z" fill="var(--fill-0, #EEDCEE)"/>
<path d="M212.014 53.9569V0H270.988V53.9569H212.014ZM212.014 357.678V93.9974H270.988V357.678H212.014Z" fill="var(--fill-0, #EEDCEE)"/>
<path d="M406.444 482.195C391.762 482.195 377.651 479.916 364.11 475.358C350.733 470.801 338.661 464.209 327.894 455.582C317.127 447.118 308.318 436.864 301.466 424.819L355.79 397.963C360.848 407.566 367.944 414.647 377.08 419.204C386.379 423.924 396.248 426.284 406.689 426.284C418.924 426.284 429.855 424.087 439.48 419.692C449.105 415.46 456.528 409.113 461.748 400.649C467.131 392.348 469.66 381.931 469.334 369.398V294.444H476.675V93.9974H528.308V370.374C528.308 377.048 527.982 383.396 527.329 389.418C526.84 395.603 525.942 401.625 524.637 407.485C520.722 424.575 513.218 438.573 502.124 449.479C491.031 460.547 477.246 468.766 460.769 474.138C444.455 479.509 426.347 482.195 406.444 482.195ZM401.306 365.003C376.998 365.003 355.79 358.899 337.682 346.692C319.574 334.484 305.544 317.882 295.593 296.885C285.641 275.889 280.666 252.206 280.666 225.838C280.666 199.144 285.641 175.38 295.593 154.546C305.707 133.55 319.982 117.029 338.416 104.984C356.851 92.7767 378.548 86.6729 403.508 86.6729C428.631 86.6729 449.676 92.7767 466.642 104.984C483.771 117.029 496.741 133.55 505.55 154.546C514.36 175.543 518.764 199.307 518.764 225.838C518.764 252.043 514.36 275.726 505.55 296.885C496.741 317.882 483.608 334.484 466.153 346.692C448.697 358.899 427.081 365.003 401.306 365.003ZM410.36 312.267C426.184 312.267 438.909 308.686 448.534 301.524C458.322 294.2 465.418 284.027 469.823 271.006C474.391 257.984 476.675 242.928 476.675 225.838C476.675 208.585 474.391 193.529 469.823 180.67C465.418 167.649 458.485 157.558 449.023 150.396C439.561 143.071 427.326 139.409 412.317 139.409C396.493 139.409 383.442 143.316 373.164 151.128C362.887 158.778 355.301 169.195 350.407 182.379C345.513 195.401 343.066 209.887 343.066 225.838C343.066 241.952 345.431 256.601 350.162 269.785C355.056 282.806 362.479 293.142 372.43 300.792C382.382 308.442 395.025 312.267 410.36 312.267Z" fill="var(--fill-0, #EEDCEE)"/>
<path d="M730.782 357.678V230.721C730.782 222.42 730.211 213.224 729.07 203.132C727.928 193.041 725.236 183.356 720.994 174.078C716.916 164.638 710.717 156.906 702.397 150.884C694.24 144.862 683.146 141.851 669.117 141.851C661.612 141.851 654.19 143.071 646.848 145.513C639.507 147.954 632.819 152.186 626.783 158.209C620.91 164.068 616.179 172.207 612.59 182.624C609.001 192.878 607.206 206.062 607.206 222.176L572.213 207.283C572.213 184.821 576.536 164.475 585.183 146.245C593.992 128.016 606.88 113.529 623.846 102.787C640.812 91.8814 661.694 86.4288 686.491 86.4288C706.067 86.4288 722.218 89.6841 734.943 96.1947C747.667 102.705 757.782 111.006 765.286 121.098C772.79 131.189 778.337 141.932 781.926 153.326C785.515 164.719 787.799 175.543 788.778 185.797C789.92 195.889 790.491 204.109 790.491 210.457V357.678H730.782ZM547.498 357.678V6.10372H600.11V191.169H607.206V357.678H547.498Z" fill="var(--fill-0, #EEDCEE)"/>
<path d="M960.305 357.678C942.849 360.934 925.72 362.317 908.917 361.829C892.277 361.503 877.35 358.492 864.136 352.795C850.921 346.936 840.889 337.74 834.037 325.207C828.001 313.813 824.82 302.175 824.493 290.293C824.167 278.411 824.004 264.983 824.004 250.009V20.7527H882.733V246.591C882.733 257.17 882.815 266.448 882.978 274.424C883.304 282.399 885.017 288.91 888.117 293.956C893.99 303.722 903.37 309.174 916.258 310.314C929.146 311.453 943.828 310.802 960.305 308.36V357.678ZM776.042 140.142V93.9974H960.305V140.142H776.042Z" fill="var(--fill-0, #EEDCEE)"/>
<path d="M973.087 53.9569V0H1032.06V53.9569H973.087ZM973.087 357.678V93.9974H1032.06V357.678H973.087Z" fill="var(--fill-0, #EEDCEE)"/>
<path d="M1239.22 357.678V230.721C1239.22 222.42 1238.64 213.224 1237.5 203.132C1236.36 193.041 1233.67 183.356 1229.43 174.078C1225.35 164.638 1219.15 156.906 1210.83 150.884C1202.67 144.862 1191.58 141.851 1177.55 141.851C1170.05 141.851 1162.62 143.071 1155.28 145.513C1147.94 147.954 1141.25 152.186 1135.22 158.209C1129.34 164.068 1124.61 172.207 1121.02 182.624C1117.43 192.878 1115.64 206.062 1115.64 222.176L1080.65 207.283C1080.65 184.821 1084.97 164.475 1093.62 146.245C1102.43 128.016 1115.31 113.529 1132.28 102.787C1149.25 91.8814 1170.13 86.4288 1194.92 86.4288C1214.5 86.4288 1230.65 89.6841 1243.38 96.1947C1256.1 102.705 1266.21 111.006 1273.72 121.098C1281.22 131.189 1286.77 141.932 1290.36 153.326C1293.95 164.719 1296.23 175.543 1297.21 185.797C1298.35 195.889 1298.92 204.109 1298.92 210.457V357.678H1239.22ZM1055.93 357.678V93.9974H1108.54V175.787H1115.64V357.678H1055.93Z" fill="var(--fill-0, #EEDCEE)"/>
<path d="M1298.92 125.004L1302.35 99.6128C1309.85 100.264 1315.81 99.0432 1320.21 95.9506C1324.62 92.6953 1327.55 88.2192 1329.02 82.5224C1330.65 76.6628 1331.06 70.0708 1330.25 62.7463H1298.92V0H1359.37V65.1878C1359.37 86.5102 1354.31 102.624 1344.19 113.529C1334.08 124.435 1318.99 128.26 1298.92 125.004Z" fill="var(--fill-0, #EEDCEE)"/>
</g>
</svg>
