<svg width="1360" height="290" viewBox="0 0 1360 290" fill="none" xmlns="http://www.w3.org/2000/svg">
<g clip-path="url(#clip0_816_9439)">
<path d="M0 381.484V29.9091H58.974V326.306H214.607V381.484H0Z" fill="#EEDCEE"/>
<path d="M212.014 77.7624V23.8054H270.988V77.7624H212.014ZM212.014 381.484V117.803H270.988V381.484H212.014Z" fill="#EEDCEE"/>
<path d="M406.444 506C391.762 506 377.651 503.721 364.11 499.164C350.733 494.606 338.661 488.014 327.894 479.388C317.127 470.924 308.318 460.67 301.466 448.625L355.79 421.769C360.848 431.372 367.944 438.452 377.08 443.009C386.379 447.73 396.248 450.09 406.689 450.09C418.924 450.09 429.855 447.892 439.48 443.498C449.105 439.266 456.528 432.918 461.748 424.454C467.131 416.153 469.66 405.736 469.334 393.203V318.249H476.675V117.803H528.308V394.18C528.308 400.853 527.982 407.201 527.329 413.223C526.84 419.408 525.942 425.431 524.637 431.29C520.722 448.381 513.218 462.379 502.124 473.284C491.031 484.352 477.246 492.572 460.769 497.943C444.455 503.314 426.347 506 406.444 506ZM401.306 388.808C376.998 388.808 355.79 382.705 337.682 370.497C319.574 358.29 305.544 341.688 295.593 320.691C285.641 299.694 280.666 276.011 280.666 249.643C280.666 222.95 285.641 199.186 295.593 178.352C305.707 157.355 319.982 140.834 338.416 128.79C356.851 116.582 378.548 110.478 403.508 110.478C428.631 110.478 449.676 116.582 466.642 128.79C483.771 140.834 496.741 157.355 505.55 178.352C514.36 199.349 518.764 223.112 518.764 249.643C518.764 275.849 514.36 299.531 505.55 320.691C496.741 341.688 483.608 358.29 466.153 370.497C448.697 382.705 427.081 388.808 401.306 388.808ZM410.36 336.072C426.184 336.072 438.909 332.491 448.534 325.33C458.322 318.005 465.418 307.832 469.823 294.811C474.391 281.79 476.675 266.734 476.675 249.643C476.675 232.39 474.391 217.334 469.823 204.476C465.418 191.454 458.485 181.363 449.023 174.201C439.561 166.877 427.326 163.215 412.317 163.215C396.493 163.215 383.442 167.121 373.164 174.934C362.887 182.584 355.301 193.001 350.407 206.185C345.513 219.206 343.066 233.692 343.066 249.643C343.066 265.757 345.431 280.406 350.162 293.59C355.056 306.611 362.479 316.947 372.43 324.597C382.382 332.247 395.025 336.072 410.36 336.072Z" fill="#EEDCEE"/>
<path d="M730.782 381.484V254.526C730.782 246.225 730.211 237.029 729.07 226.937C727.928 216.846 725.236 207.161 720.994 197.884C716.916 188.443 710.717 180.712 702.397 174.69C694.24 168.667 683.146 165.656 669.117 165.656C661.612 165.656 654.19 166.877 646.848 169.318C639.507 171.76 632.819 175.992 626.783 182.014C620.91 187.874 616.179 196.012 612.59 206.429C609.001 216.683 607.206 229.867 607.206 245.981L572.213 231.088C572.213 208.626 576.536 188.281 585.183 170.051C593.992 151.821 606.88 137.335 623.846 126.592C640.812 115.687 661.694 110.234 686.491 110.234C706.067 110.234 722.218 113.49 734.943 120C747.667 126.511 757.782 134.812 765.286 144.903C772.79 154.995 778.337 165.737 781.926 177.131C785.515 188.525 787.799 199.349 788.778 209.603C789.92 219.694 790.491 227.914 790.491 234.262V381.484H730.782ZM547.498 381.484V29.9091H600.11V214.974H607.206V381.484H547.498Z" fill="#EEDCEE"/>
<path d="M960.305 381.484C942.849 384.739 925.72 386.123 908.917 385.634C892.277 385.309 877.35 382.298 864.136 376.601C850.921 370.741 840.889 361.545 834.037 349.012C828.001 337.618 824.82 325.981 824.493 314.099C824.167 302.217 824.004 288.789 824.004 273.814V44.5581H882.733V270.396C882.733 280.976 882.815 290.253 882.978 298.229C883.304 306.205 885.017 312.715 888.117 317.761C893.99 327.527 903.37 332.98 916.258 334.119C929.146 335.258 943.828 334.607 960.305 332.166V381.484ZM776.042 163.947V117.803H960.305V163.947H776.042Z" fill="#EEDCEE"/>
<path d="M973.087 77.7624V23.8054H1032.06V77.7624H973.087ZM973.087 381.484V117.803H1032.06V381.484H973.087Z" fill="#EEDCEE"/>
<path d="M1239.22 381.484V254.526C1239.22 246.225 1238.64 237.029 1237.5 226.937C1236.36 216.846 1233.67 207.161 1229.43 197.884C1225.35 188.443 1219.15 180.712 1210.83 174.69C1202.67 168.667 1191.58 165.656 1177.55 165.656C1170.05 165.656 1162.62 166.877 1155.28 169.318C1147.94 171.76 1141.25 175.992 1135.22 182.014C1129.34 187.874 1124.61 196.012 1121.02 206.429C1117.43 216.683 1115.64 229.867 1115.64 245.981L1080.65 231.088C1080.65 208.626 1084.97 188.281 1093.62 170.051C1102.43 151.821 1115.31 137.335 1132.28 126.592C1149.25 115.687 1170.13 110.234 1194.92 110.234C1214.5 110.234 1230.65 113.49 1243.38 120C1256.1 126.511 1266.21 134.812 1273.72 144.903C1281.22 154.995 1286.77 165.737 1290.36 177.131C1293.95 188.525 1296.23 199.349 1297.21 209.603C1298.35 219.694 1298.92 227.914 1298.92 234.262V381.484H1239.22ZM1055.93 381.484V117.803H1108.54V199.593H1115.64V381.484H1055.93Z" fill="#EEDCEE"/>
<path d="M1298.92 148.81L1302.35 123.418C1309.85 124.069 1315.81 122.849 1320.21 119.756C1324.62 116.501 1327.55 112.025 1329.02 106.328C1330.65 100.468 1331.06 93.8762 1330.25 86.5517H1298.92V23.8054H1359.37V88.9932C1359.37 110.316 1354.31 126.429 1344.19 137.335C1334.08 148.24 1318.99 152.065 1298.92 148.81Z" fill="#EEDCEE"/>
</g>
<defs>
<clipPath id="clip0_816_9439">
<rect width="1360" height="290" fill="white"/>
</clipPath>
</defs>
</svg>
