<svg width="48" height="46" viewBox="0 0 48 46" fill="none" xmlns="http://www.w3.org/2000/svg">
<rect width="48" height="46" fill="#EEDCEE"/>
<path d="M7.29114 36.9211V10.3964H12.5189V36.9211H7.29114Z" fill="#2B2A2F"/>
<path d="M35.0864 36.9211V23.8798C35.0864 22.8483 34.9946 21.7922 34.8112 20.7116C34.6445 19.6146 34.311 18.5994 33.8107 17.6662C33.3271 16.7329 32.6351 15.9797 31.7346 15.4067C30.8508 14.8336 29.6918 14.5471 28.2577 14.5471C27.3239 14.5471 26.4401 14.7026 25.6063 15.0137C24.7725 15.3084 24.0388 15.7914 23.4052 16.4627C22.7882 17.134 22.2962 18.0182 21.9294 19.1152C21.5792 20.2122 21.4041 21.5466 21.4041 23.1184L18.1524 21.915C18.1524 19.5081 18.6109 17.3878 19.5281 15.554C20.4452 13.7038 21.7626 12.263 23.4802 11.2315C25.1978 10.2 27.2739 9.68421 29.7085 9.68421C31.5762 9.68421 33.1437 9.97893 34.411 10.5684C35.6783 11.1578 36.7039 11.9355 37.4876 12.9015C38.2881 13.8512 38.8967 14.8909 39.3136 16.0206C39.7305 17.1504 40.014 18.2556 40.1641 19.3362C40.3141 20.4169 40.3892 21.3665 40.3892 22.1852V36.9211H35.0864ZM16.1013 36.9211V10.3964H20.7788V18.0591H21.4041V36.9211H16.1013Z" fill="#2B2A2F"/>
</svg>
