<svg preserveAspectRatio="none" width="100%" height="100%" overflow="visible" style="display: block;" viewBox="0 0 117 41.6293" fill="none" xmlns="http://www.w3.org/2000/svg">
<g id="Lightin&#226;&#128;&#153;">
<path d="M0 30.8795V0.526953H5.07587V26.1158H18.4711V30.8795H0Z" fill="var(--fill-0, #2B2A2F)"/>
<path d="M18.248 4.65827V0H23.3238V4.65827H18.248ZM18.248 30.8795V8.11509H23.3238V30.8795H18.248Z" fill="var(--fill-0, #2B2A2F)"/>
<path d="M34.9961 41.6293C33.7324 41.6293 32.5178 41.4326 31.3524 41.0391C30.201 40.6457 29.162 40.0766 28.2353 39.3318C27.3086 38.6011 26.5503 37.7158 25.9606 36.676L30.6363 34.3574C31.0716 35.1865 31.6824 35.7977 32.4687 36.1912C33.269 36.5987 34.1185 36.8024 35.0171 36.8024C36.0702 36.8024 37.011 36.6127 37.8394 36.2333C38.6678 35.868 39.3067 35.3199 39.756 34.5892C40.2194 33.8726 40.437 32.9732 40.4089 31.8912V25.4202H41.0408V8.11509H45.4848V31.9755C45.4848 32.5517 45.4567 33.0997 45.4006 33.6196C45.3584 34.1536 45.2812 34.6735 45.1689 35.1794C44.8319 36.6549 44.186 37.8634 43.2312 38.8049C42.2764 39.7604 41.0899 40.47 39.6718 40.9338C38.2677 41.3975 36.7091 41.6293 34.9961 41.6293ZM34.5538 31.5118C32.4617 31.5118 30.6363 30.9849 29.0777 29.931C27.5192 28.8771 26.3116 27.4437 25.4551 25.631C24.5986 23.8183 24.1704 21.7737 24.1704 19.4973C24.1704 17.1927 24.5986 15.1411 25.4551 13.3425C26.3257 11.5297 27.5543 10.1035 29.1409 9.0636C30.7276 8.00969 32.595 7.48274 34.7433 7.48274C36.9057 7.48274 38.717 8.00969 40.1773 9.0636C41.6516 10.1035 42.7678 11.5297 43.5261 13.3425C44.2843 15.1552 44.6634 17.2068 44.6634 19.4973C44.6634 21.7597 44.2843 23.8043 43.5261 25.631C42.7678 27.4437 41.6375 28.8771 40.1351 29.931C38.6327 30.9849 36.7723 31.5118 34.5538 31.5118ZM35.3331 26.9589C36.6951 26.9589 37.7903 26.6498 38.6187 26.0315C39.4612 25.3992 40.0719 24.5209 40.4511 23.3967C40.8442 22.2726 41.0408 20.9728 41.0408 19.4973C41.0408 18.0078 40.8442 16.7079 40.4511 15.5978C40.0719 14.4737 39.4752 13.6024 38.6608 12.9841C37.8464 12.3518 36.7933 12.0356 35.5016 12.0356C34.1396 12.0356 33.0163 12.3729 32.1317 13.0474C31.2471 13.7078 30.5942 14.6072 30.173 15.7454C29.7517 16.8695 29.5411 18.1202 29.5411 19.4973C29.5411 20.8884 29.7447 22.1531 30.1519 23.2914C30.5731 24.4155 31.212 25.3078 32.0685 25.9683C32.925 26.6287 34.0132 26.9589 35.3331 26.9589Z" fill="var(--fill-0, #2B2A2F)"/>
<path d="M62.9117 30.8795V19.9188C62.9117 19.2022 62.8626 18.4082 62.7643 17.537C62.666 16.6658 62.4343 15.8297 62.0692 15.0287C61.7182 14.2137 61.1846 13.5462 60.4685 13.0263C59.7665 12.5064 58.8117 12.2464 57.6042 12.2464C56.9583 12.2464 56.3194 12.3518 55.6875 12.5626C55.0557 12.7734 54.48 13.1387 53.9605 13.6586C53.455 14.1645 53.0478 14.8671 52.7389 15.7665C52.43 16.6517 52.2755 17.79 52.2755 19.1811L49.2637 17.8953C49.2637 15.9562 49.6358 14.1996 50.38 12.6258C51.1382 11.052 52.2475 9.80134 53.7077 8.8739C55.168 7.93241 56.9653 7.46166 59.0995 7.46166C60.7845 7.46166 62.1745 7.7427 63.2698 8.30479C64.365 8.86687 65.2355 9.58353 65.8814 10.4548C66.5273 11.326 67.0047 12.2534 67.3136 13.2371C67.6225 14.2207 67.8191 15.1552 67.9033 16.0405C68.0016 16.9117 68.0508 17.6213 68.0508 18.1694V30.8795H62.9117ZM47.1365 30.8795V0.526953H51.6648V16.5042H52.2755V30.8795H47.1365Z" fill="var(--fill-0, #2B2A2F)"/>
<path d="M83.576 30.8795C82.0736 31.1605 80.5992 31.28 79.153 31.2378C77.7208 31.2097 76.4361 30.9497 75.2987 30.4579C74.1614 29.952 73.2979 29.1581 72.7081 28.0761C72.1886 27.0924 71.9148 26.0877 71.8867 25.0619C71.8586 24.0361 71.8446 22.8768 71.8446 21.584V11.6878V1.79164H76.8994V21.2889C76.8994 22.2023 76.9064 23.0033 76.9205 23.6918C76.9486 24.3804 77.096 24.9425 77.3628 25.3781C77.8683 26.2212 78.6756 26.692 79.7849 26.7903C80.8941 26.8887 82.1578 26.8325 83.576 26.6217V30.8795ZM67.7165 12.0989V8.11509H83.576V12.0989H67.7165Z" fill="var(--fill-0, #2B2A2F)"/>
<path d="M85.041 30.8795V8.11509H90.1169V30.8795H85.041Z" fill="var(--fill-0, #2B2A2F)"/>
<path d="M107.582 30.8795V19.9188C107.582 19.2022 107.533 18.4082 107.434 17.537C107.336 16.6658 107.104 15.8297 106.739 15.0287C106.388 14.2137 105.855 13.5462 105.139 13.0263C104.436 12.5064 103.482 12.2464 102.274 12.2464C101.628 12.2464 100.989 12.3518 100.358 12.5626C99.7257 12.7734 99.15 13.1387 98.6305 13.6586C98.125 14.1645 97.7178 14.8671 97.4089 15.7665C97.1 16.6517 96.9455 17.79 96.9455 19.1811L93.9337 17.8953C93.9337 15.9562 94.3058 14.1996 95.05 12.6258C95.8082 11.052 96.9174 9.80134 98.3777 8.8739C99.838 7.93241 101.635 7.46166 103.77 7.46166C105.454 7.46166 106.845 7.7427 107.94 8.30479C109.035 8.86687 109.905 9.58353 110.551 10.4548C111.197 11.326 111.675 12.2534 111.984 13.2371C112.292 14.2207 112.489 15.1552 112.573 16.0405C112.672 16.9117 112.721 17.6213 112.721 18.1694V30.8795H107.582ZM91.8065 30.8795V8.11509H96.3347V15.1763H96.9455V30.8795H91.8065Z" fill="var(--fill-0, #2B2A2F)"/>
<path d="M111.798 10.792L112.093 8.59988C112.739 8.65609 113.251 8.5507 113.63 8.28371C114.009 8.00267 114.262 7.61624 114.388 7.12441C114.529 6.61854 114.564 6.04943 114.494 5.41708H111.798V0H117V5.62786C117 7.46869 116.565 8.85985 115.694 9.80134C114.824 10.7428 113.525 11.0731 111.798 10.792Z" fill="var(--fill-0, #2B2A2F)"/>
</g>
</svg>
