<svg width="32" height="32" viewBox="0 0 32 32" fill="none" xmlns="http://www.w3.org/2000/svg">
<g clip-path="url(#clip0_104_230)">
<mask id="mask0_104_230" style="mask-type:luminance" maskUnits="userSpaceOnUse" x="0" y="0" width="32" height="32">
<path d="M32 0H0V32H32V0Z" fill="white"/>
</mask>
<g mask="url(#mask0_104_230)">
<path d="M13.3428 0C20.5959 1.99028e-05 26.6854 5.67625 26.6855 12.9316C26.6855 16.2816 25.3859 19.2938 23.2744 21.5674L31.4404 29.4102C32.0379 29.984 32.0379 30.9144 31.4404 31.4883C30.843 32.062 29.8748 32.0621 29.2773 31.4883L20.9863 23.5254C18.8071 25.002 16.1641 25.8643 13.3428 25.8643C6.08954 25.8643 0 20.1872 0 12.9316C0.00016542 5.67624 6.08964 0 13.3428 0ZM13.3428 3C7.63074 3 3.00017 7.44652 3 12.9316C3 18.2455 7.34574 22.5846 12.8105 22.8506L13.3428 22.8643C18.8763 22.8642 23.3947 18.6909 23.6719 13.4434L23.6855 12.9316C23.6854 7.61794 19.3397 3.27871 13.875 3.0127L13.3428 3Z" fill="#2B2A2F"/>
</g>
</g>
<defs>
<clipPath id="clip0_104_230">
<rect width="32" height="32" fill="white"/>
</clipPath>
</defs>
</svg>
