<svg width="32" height="32" viewBox="0 0 32 32" fill="none" xmlns="http://www.w3.org/2000/svg">
<g clip-path="url(#clip0_471_3313)">
<path d="M16 2.66667C23.352 2.66667 29.3333 8.648 29.3333 16C29.3333 23.352 23.352 29.3333 16 29.3333C8.648 29.3333 2.66667 23.352 2.66667 16C2.66667 8.648 8.648 2.66667 16 2.66667ZM16 0C7.164 0 0 7.164 0 16C0 24.836 7.164 32 16 32C24.836 32 32 24.836 32 16C32 7.164 24.836 0 16 0ZM8 22.6667C10.0173 13.884 17.3333 12.296 17.3333 12.296V9.33333L24 15.2333L17.3333 21.1853V18.2213C17.3333 18.2213 12.2933 18.0693 8 22.6667Z" fill="#2B2A2F"/>
</g>
<defs>
<clipPath id="clip0_471_3313">
<rect width="32" height="32" fill="white"/>
</clipPath>
</defs>
</svg>
